<svg xmlns="http://www.w3.org/2000/svg" width="1024" height="1024" viewBox="0 0 1024 1024">
  <defs>
    <linearGradient id="bg" x1="90" y1="70" x2="930" y2="960" gradientUnits="userSpaceOnUse">
      <stop offset="0" stop-color="#42A5FF"/>
      <stop offset="0.55" stop-color="#087EFF"/>
      <stop offset="1" stop-color="#0056D6"/>
    </linearGradient>
    <filter id="shadow" x="-30%" y="-30%" width="160%" height="170%">
      <feDropShadow dx="0" dy="34" stdDeviation="32" flood-color="#003C96" flood-opacity=".32"/>
    </filter>
  </defs>
  <rect width="1024" height="1024" fill="url(#bg)"/>
  <circle cx="882" cy="160" r="240" fill="#FFFFFF" opacity=".07"/>
  <circle cx="130" cy="900" r="290" fill="#001F65" opacity=".09"/>
  <g filter="url(#shadow)">
    <path d="M235 234c0-62 50-112 112-112h330c62 0 112 50 112 112v310c0 62-50 112-112 112H503L338 792c-28 23-70 3-70-33V649c-21-20-33-49-33-80V234Z" fill="#FFFFFF"/>
  </g>
  <path d="m521 226 31 83 83 31-83 31-31 83-31-83-83-31 83-31 31-83Z" fill="#FFB340"/>
  <path d="m680 398 18 48 48 18-48 18-18 48-18-48-48-18 48-18 18-48Z" fill="#34C759"/>
  <circle cx="392" cy="526" r="25" fill="#007AFF"/>
  <circle cx="512" cy="526" r="25" fill="#007AFF"/>
  <circle cx="632" cy="526" r="25" fill="#007AFF"/>
</svg>
